<?xml version="1.0" encoding="utf-8"?>
<!-- Generator: Adobe Illustrator 26.1.0, SVG Export Plug-In . SVG Version: 6.00 Build 0)  -->
<svg version="1.1" id="Layer_1" xmlns="http://www.w3.org/2000/svg" xmlns:xlink="http://www.w3.org/1999/xlink" x="0px" y="0px"
	 viewBox="0 0 512 512" style="enable-background:new 0 0 512 512;" xml:space="preserve">
<style type="text/css">
	.st0{fill:#0F1117;stroke:#1A1D27;stroke-width:3;}
	.st1{fill:#FFFFFF;}
	.st2{font-family:'CelticHand';}
	.st3{font-size:416.4558px;}
	.st4{fill:#22263A;stroke:#22263A;stroke-width:8;stroke-linecap:round;}
	.st5{fill:#22263A;stroke:#22263A;stroke-width:7;stroke-linecap:round;enable-background:new    ;}
</style>
<path class="st0" d="M370,507.1H142.3c-76.7,0-139-62.2-139-139V142c0-76.7,62.2-139,139-139H370c76.7,0,139,62.2,139,139v226.2
	C509,444.9,446.8,507.1,370,507.1z"/>
<text transform="matrix(1 0 0 1 172.9005 423.9813)" class="st1 st2 st3">D</text>
<g>
	<line class="st4" x1="119.9" y1="96" x2="77.9" y2="96"/>
	<line class="st4" x1="119.9" y1="120" x2="77.9" y2="120"/>
	<line class="st4" x1="72.9" y1="178" x2="168.9" y2="220"/>
	<line class="st4" x1="72.9" y1="199" x2="168.9" y2="199"/>
	<line class="st4" x1="72.9" y1="220" x2="168.9" y2="178"/>
	<line class="st4" x1="121.9" y1="256" x2="167.9" y2="256"/>
	<line class="st4" x1="121.9" y1="277" x2="167.9" y2="277"/>
	<line class="st4" x1="121.9" y1="298" x2="167.9" y2="298"/>
	<line class="st4" x1="121.9" y1="319" x2="167.9" y2="319"/>
	<line class="st4" x1="121.9" y1="340" x2="167.9" y2="340"/>
	<line class="st4" x1="78.9" y1="368" x2="162.9" y2="368"/>
	<line class="st4" x1="78.9" y1="389" x2="162.9" y2="389"/>
	<line class="st4" x1="78.9" y1="410" x2="162.9" y2="410"/>
	<line class="st5" x1="120.9" y1="68" x2="120.9" y2="444"/>
</g>
</svg>
